<svg width="51" height="51" viewBox="0 0 51 51" fill="none" xmlns="http://www.w3.org/2000/svg">
<g clip-path="url(#clip0_251_515)">
<path d="M25.4999 0C15.6868 0 9.64248 5.5347 9.62578 5.5441C9.24708 7.2922 8.58838 9.8291 8.58838 11.6906C8.58838 25.7739 20.4647 37.1878 34.548 37.1878C40.5497 37.1878 46.0639 34.3934 50.4199 30.9239C50.4377 30.8152 50.9999 28.5762 50.9999 25.5C50.9999 11.4167 39.5832 0 25.4999 0V0Z" fill="#1A2B63"/>
<path d="M34.5459 36.4678C20.4626 36.4678 9.0459 25.0511 9.0459 10.9678C9.0459 9.10635 9.2472 7.29215 9.6259 5.54395C9.6253 5.54445 9.6248 5.54495 9.6242 5.54535C3.7597 10.2174 0 17.4191 0 25.4999C0 32.9592 3.2028 39.6706 8.3083 44.3336L12.2615 47.2987C16.1205 49.6473 20.6523 51 25.5 51C30.325 51 34.861 49.6525 38.7315 47.2997L42.6918 44.3322C46.5108 40.8467 49.2756 36.2059 50.4199 30.9239C46.064 34.3934 40.5475 36.4678 34.5459 36.4678Z" fill="#1A2B63"/>
<path d="M42.6912 3.70154C42.3019 3.70154 23.9132 3.70154 23.3599 3.70154V47.2985H38.7307C40.1459 46.4382 41.4723 45.444 42.6911 44.3316C42.6912 41.6352 42.6912 5.56824 42.6912 3.70154Z" fill="#F9EF63"/>
<path d="M23.6198 3.70154C18.0215 3.70154 13.5144 3.70154 8.30859 3.70154V44.3331C9.52429 45.4434 10.8476 46.438 12.2615 47.2985H23.6198V3.70154Z" fill="#F4DD45"/>
<path d="M23.4111 30.1005H35.4269V32.6005H23.4111V30.1005Z" fill="#F4DD45"/>
<path d="M23.4111 35.3849H35.4269V37.8849H23.4111V35.3849Z" fill="#F4DD45"/>
<path d="M15.5728 30.1005H23.6198V32.6005H15.5728V30.1005Z" fill="#ECBE6B"/>
<path d="M15.5728 35.3849H23.6198V37.8849H15.5728V35.3849Z" fill="#ECBE6B"/>
<path d="M31.2749 10.8253H19.3388C18.8044 10.8253 18.3711 11.2586 18.3711 11.793V27.142C18.3711 27.6765 18.8044 28.1097 19.3388 28.1097H31.2749C31.8094 28.1097 32.2426 27.6764 32.2426 27.142V11.793C32.2426 11.2586 31.8094 10.8253 31.2749 10.8253Z" fill="#F4DD45"/>
<path d="M31.2749 8.62524H19.3388C18.8044 8.62524 18.3711 9.05854 18.3711 9.59294V24.9419C18.3711 25.4763 18.8044 25.9096 19.3388 25.9096H31.2749C31.8094 25.9096 32.2426 25.4763 32.2426 24.9419V9.59294C32.2426 9.05844 31.8094 8.62524 31.2749 8.62524Z" fill="#F9F6F6"/>
<path d="M31.275 8.62524H23.5244V25.9096H31.275C31.8094 25.9096 32.2427 25.4763 32.2427 24.9419V9.59294C32.2427 9.05844 31.8095 8.62524 31.275 8.62524Z" fill="#F9F6F6"/>
<path d="M23.6196 8.62524H19.3388C18.8044 8.62524 18.3711 9.05854 18.3711 9.59294V24.9419C18.3711 25.4763 18.8044 25.9096 19.3388 25.9096H23.6196V8.62524Z" fill="#FFEBB4"/>
<path d="M26.5284 18.1617C26.138 18.0612 25.7287 18.0078 25.307 18.0078C25.3007 18.0078 25.2944 18.0078 25.2881 18.0078C24.3085 18.0115 23.5244 18.8262 23.5244 19.8058V25.9095H30.1932V22.894C30.1932 20.6172 28.6359 18.7041 26.5284 18.1617Z" fill="#DF6B57"/>
<path d="M26.9072 18.2772C26.4057 18.1034 25.8677 18.0078 25.3071 18.0078C22.6085 18.0078 20.4209 20.1954 20.4209 22.894V25.9095H23.6211V22.894C23.621 20.756 24.9947 18.94 26.9072 18.2772Z" fill="#DA387D"/>
<path d="M25.307 19.0427C26.9486 19.0427 28.2795 17.2657 28.2795 15.0736C28.2795 12.8815 26.9486 11.1045 25.307 11.1045C23.6653 11.1045 22.3345 12.8815 22.3345 15.0736C22.3345 17.2657 23.6653 19.0427 25.307 19.0427Z" fill="#FAA073"/>
<path d="M26.9071 17.2673C25.2654 17.2673 23.9346 15.4903 23.9346 13.2982C23.9346 12.58 24.0782 11.907 24.328 11.3258C23.1675 11.8663 22.3345 13.3396 22.3345 15.0735C22.3345 17.2656 23.6653 19.0426 25.307 19.0426C26.4108 19.0426 27.3733 18.2386 27.8861 17.0459C27.5794 17.1888 27.2502 17.2673 26.9071 17.2673Z" fill="#FF8257"/>
</g>
<defs>
<clipPath id="clip0_251_515">
<rect width="51" height="51" fill="white"/>
</clipPath>
</defs>
</svg>
