<svg width="51" height="51" viewBox="0 0 51 51" fill="none" xmlns="http://www.w3.org/2000/svg">
<g clip-path="url(#clip0_251_442)">
<path d="M50.972 25.486C50.972 27.842 50.6525 30.1244 50.0533 32.2902C49.9619 32.6232 49.8631 32.9528 49.758 33.2804C49.4576 34.2178 49.1039 35.1321 48.7 36.0197C48.4576 36.5543 48.1965 37.0796 47.9179 37.5936C47.5226 38.3259 47.0919 39.0364 46.6281 39.7227C46.446 39.9932 46.2588 40.2585 46.0662 40.5216C45.9787 40.6426 45.8896 40.762 45.7989 40.8807C41.1449 47.0117 33.7777 50.972 25.486 50.972C23.1965 50.972 20.9775 50.6704 18.8678 50.1035C15.3904 49.1712 12.2072 47.5226 9.48507 45.3246C9.22788 45.1176 8.97535 44.9052 8.72672 44.688C8.0275 44.0771 7.36292 43.4293 6.73453 42.7468C6.45282 42.4422 6.18006 42.1301 5.91392 41.8118C5.65984 41.5079 5.41237 41.1966 5.1723 40.8807C5.1723 40.8795 5.1723 40.8795 5.17113 40.8784C4.79331 40.3811 4.4334 39.8694 4.09449 39.3441C3.91434 39.0694 3.7408 38.7908 3.5731 38.508C1.30348 34.6975 0 30.2443 0 25.486C0 11.4103 11.4103 0 25.486 0C39.5617 0 50.972 11.4103 50.972 25.486Z" fill="#1A2B63"/>
<path d="M0.261172 14.2963C3.74205 18.2799 7.8097 21.7098 12.3236 24.4678C12.8287 24.7759 13.4882 24.6102 13.7863 24.0989C14.9469 22.1079 16.1076 20.1168 17.2679 18.1262C17.5562 17.6317 17.3979 16.9971 16.9103 16.6971C13.2641 14.4531 9.9727 11.6781 7.1455 8.46333C6.7673 8.03338 6.11517 7.98474 5.67665 8.35205C3.91014 9.83218 2.14402 11.3123 0.377513 12.7928C-0.0761765 13.1726 -0.128316 13.8508 0.261172 14.2963Z" fill="#36B990"/>
<path d="M2.20894 12.5298L5.0945 10.1119C5.15481 10.1835 5.22212 10.2512 5.29605 10.3139C5.93845 10.8551 6.87229 10.824 7.47617 10.2726C8.61662 11.4792 9.82672 12.6228 11.0921 13.6897C12.3578 14.7566 13.6893 15.7562 15.071 16.6764C14.6294 17.3651 14.7562 18.2908 15.3982 18.832C15.4726 18.8947 15.5508 18.9495 15.6317 18.997L13.7356 22.2491C13.0539 21.8507 12.1644 21.988 11.638 22.6121C11.5886 22.6709 11.5438 22.7324 11.5041 22.7954C9.77419 21.6639 8.10963 20.4254 6.53339 19.0962C4.95715 17.7671 3.45522 16.3356 2.04785 14.8216C2.10349 14.7718 2.15602 14.7173 2.20583 14.6586C2.73228 14.0344 2.7171 13.1348 2.20894 12.5298Z" fill="#77D9A5"/>
<path d="M0.940918 13.5925L1.47476 13.145C1.68916 13.3995 1.69577 13.7785 1.47398 14.0419C1.45142 14.0684 1.42768 14.0925 1.40239 14.1147C1.24753 13.9419 1.09383 13.7676 0.940918 13.5925Z" fill="#77D9A5"/>
<path d="M5.82861 9.49678L6.36246 9.04932C6.51576 9.22402 6.66984 9.39756 6.82626 9.56954C6.57179 9.79716 6.18191 9.80884 5.91305 9.58199C5.88192 9.55592 5.8539 9.52752 5.82861 9.49678Z" fill="#77D9A5"/>
<path d="M15.8739 17.1986C16.0696 17.3231 16.2669 17.4461 16.465 17.5675L16.114 18.1694C16.0797 18.1496 16.0467 18.1266 16.0155 18.1002C15.7471 17.8737 15.6926 17.4877 15.8739 17.1986Z" fill="#77D9A5"/>
<path d="M12.37 23.2293C12.5918 22.9666 12.9665 22.9091 13.2532 23.0768L12.9027 23.6787C12.7046 23.5581 12.5069 23.4359 12.3101 23.3122C12.328 23.2837 12.3478 23.2557 12.37 23.2293Z" fill="#77D9A5"/>
<path d="M6.61682 14.5617C5.47054 15.9212 5.52034 17.848 6.72733 18.8659C7.9347 19.8838 9.84207 19.6071 10.9884 18.2476C12.1342 16.8885 12.0848 14.9617 10.8775 13.9438C9.67047 12.9259 7.76272 13.2025 6.61682 14.5617Z" fill="#36B990"/>
<path d="M7.1781 18.0561C6.60262 17.5374 6.37695 16.8238 6.64348 16.5083C6.78472 16.3406 7.14075 16.2184 7.32829 16.3767C7.53529 16.5514 7.45748 16.9837 7.76875 17.3557L8.44228 16.5565C8.13412 16.0013 7.78043 15.3398 8.31271 14.7087C8.84111 14.0822 9.55822 14.1721 10.1438 14.539L10.2602 14.4009C10.3185 14.3316 10.4512 14.3344 10.5598 14.4258C10.6535 14.5048 10.6932 14.648 10.6352 14.7168L10.531 14.8406C10.8286 15.1083 11.3391 15.6736 11.0524 16.0141C10.9399 16.1472 10.6224 16.3437 10.4053 16.1608C10.2426 16.0234 10.2819 15.7865 9.98195 15.4915L9.37457 16.2118C9.68234 16.7581 10.0096 17.4308 9.44811 18.0966C8.93216 18.7082 8.22556 18.7456 7.56954 18.3526L7.44891 18.4958C7.39055 18.5646 7.24269 18.5499 7.14892 18.4709C7.04036 18.3794 7.01546 18.2487 7.07382 18.1794L7.1781 18.0561ZM9.14889 15.8188L9.64382 15.2316C9.38429 15.0888 9.19519 15.1235 9.09519 15.2417C8.97457 15.3849 9.02827 15.5818 9.14889 15.8188ZM8.65551 16.9643L8.09832 17.6254C8.29949 17.7273 8.51154 17.746 8.66135 17.5682C8.7987 17.4055 8.76251 17.1977 8.65551 16.9643Z" fill="#77D9A5"/>
<path d="M13.3253 19.3569C13.3253 19.8483 12.9269 20.2464 12.4359 20.2464C11.9444 20.2464 11.5464 19.8483 11.5464 19.3569C11.5464 18.8658 11.9444 18.4674 12.4359 18.4674C12.9269 18.4674 13.3253 18.8658 13.3253 19.3569Z" fill="#36B990"/>
<path d="M6.16861 13.3227C6.16861 13.8141 5.77017 14.2122 5.27913 14.2122C4.7877 14.2122 4.38965 13.8141 4.38965 13.3227C4.38965 12.8313 4.7877 12.4332 5.27913 12.4332C5.77017 12.4332 6.16861 12.8313 6.16861 13.3227Z" fill="#36B990"/>
<path d="M18.2393 16.3083C23.0404 14.0866 27.475 11.1469 31.3901 7.58941C31.8282 7.19136 31.8543 6.51161 31.4473 6.08204C29.8625 4.40891 28.2781 2.73579 26.6933 1.06227C26.2999 0.646716 25.6462 0.620257 25.2213 1.00391C22.0435 3.87313 18.4553 6.25208 14.5755 8.06217C14.0569 8.30419 13.8265 8.91624 14.0561 9.44074C14.9802 11.5516 15.9047 13.6629 16.8288 15.7737C17.0662 16.3161 17.7023 16.5566 18.2393 16.3083Z" fill="#36B990"/>
<path d="M17.0916 13.9422L15.5815 10.4937C15.6675 10.4559 15.7516 10.4104 15.8321 10.3571C16.5321 9.89289 16.7648 8.98785 16.4053 8.25284C17.8835 7.4976 19.3212 6.65753 20.7005 5.74276C22.0803 4.82799 23.4137 3.83112 24.6849 2.76343C25.2219 3.38054 26.146 3.51906 26.846 3.05486C26.9269 3.00156 27.0016 2.94164 27.0697 2.87743L29.658 5.61085C29.0845 6.15326 28.9662 7.04546 29.4171 7.726C29.4595 7.78981 29.5058 7.85012 29.5553 7.90576C27.9833 9.24854 26.3273 10.4976 24.6086 11.6372C22.89 12.7765 21.0943 13.8158 19.2457 14.7411C19.2138 14.6738 19.176 14.6076 19.1336 14.5438C18.6823 13.8633 17.8146 13.6247 17.0916 13.9422Z" fill="#77D9A5"/>
<path d="M17.755 15.4578L17.4756 14.8196C17.7799 14.6854 18.1456 14.7858 18.3359 15.0726C18.3549 15.1014 18.3717 15.1313 18.3861 15.1617C18.1764 15.2621 17.9659 15.3605 17.755 15.4578Z" fill="#77D9A5"/>
<path d="M15.1973 9.61615L14.918 8.97803C15.1289 8.88036 15.3386 8.78075 15.5479 8.6792C15.695 8.98737 15.5962 9.36479 15.3032 9.55895C15.2693 9.58152 15.2339 9.60059 15.1973 9.61615Z" fill="#77D9A5"/>
<path d="M25.4111 2.14005C25.5862 1.98714 25.7594 1.83228 25.9314 1.67664L26.4107 2.18208C26.3819 2.20931 26.3508 2.2346 26.3166 2.25717C26.024 2.45133 25.638 2.3953 25.4111 2.14005Z" fill="#77D9A5"/>
<path d="M30.2153 7.19717C30.025 6.9104 30.0752 6.53453 30.3168 6.30652L30.7962 6.81196C30.6242 6.96838 30.4518 7.12363 30.2775 7.27771C30.2553 7.25281 30.2343 7.22557 30.2153 7.19717Z" fill="#77D9A5"/>
<path d="M20.2784 10.2831C21.2609 11.7652 23.1243 12.259 24.4406 11.3862C25.7566 10.5139 26.027 8.60534 25.0445 7.12326C24.062 5.64157 22.1986 5.14741 20.8827 6.02016C19.5664 6.89252 19.296 8.80144 20.2784 10.2831Z" fill="#36B990"/>
<path d="M23.7912 10.7262C23.1316 11.1325 22.3834 11.1484 22.1554 10.8045C22.034 10.6216 22.0173 10.2457 22.2215 10.1103C22.4472 9.9605 22.8406 10.1566 23.2849 9.96244L22.7071 9.09125C22.0877 9.23133 21.3535 9.38502 20.897 8.6967C20.4441 8.01345 20.7325 7.35042 21.2488 6.89167L21.1492 6.74109C21.099 6.666 21.1387 6.53876 21.257 6.46055C21.3593 6.39285 21.5079 6.39479 21.5577 6.47028L21.6468 6.60452C21.9873 6.3944 22.6737 6.06328 22.9196 6.43409C23.0161 6.57923 23.1153 6.93914 22.8787 7.09634C22.7013 7.21385 22.485 7.10957 22.1176 7.31424L22.6379 8.09944C23.2488 7.95781 23.9865 7.83252 24.4678 8.55896C24.9098 9.22549 24.7468 9.9142 24.1853 10.4336L24.2888 10.5897C24.3386 10.6648 24.283 10.8025 24.1807 10.8702C24.0624 10.9488 23.9301 10.9356 23.8803 10.8605L23.7912 10.7262ZM22.1974 8.20605L21.7733 7.56598C21.5632 7.77493 21.5433 7.96637 21.6289 8.09555C21.7321 8.25119 21.9363 8.25547 22.1974 8.20605ZM23.1585 9.00137L23.6363 9.72198C23.7904 9.55778 23.8678 9.35934 23.7394 9.16557C23.6219 8.98814 23.4126 8.9644 23.1585 9.00137Z" fill="#77D9A5"/>
<path d="M27.4064 6.04585C27.4064 6.53728 27.008 6.93572 26.5169 6.93572C26.0255 6.93572 25.6274 6.53728 25.6274 6.04585C25.6274 5.55481 26.0255 5.15637 26.5169 5.15637C27.008 5.15637 27.4064 5.55481 27.4064 6.04585Z" fill="#36B990"/>
<path d="M19.6045 11.2185C19.6045 11.7099 19.2061 12.1079 18.7147 12.1079C18.2236 12.1079 17.8252 11.7099 17.8252 11.2185C17.8252 10.7274 18.2236 10.329 18.7147 10.329C19.2061 10.329 19.6045 10.7274 19.6045 11.2185Z" fill="#36B990"/>
<path d="M32.3971 31.3455C37.5966 30.37 42.6168 28.6078 47.2852 26.1199C47.8074 25.8416 47.9992 25.1887 47.7101 24.6724C46.5845 22.6615 45.4588 20.6507 44.3331 18.6402C44.0534 18.1406 43.4265 17.9546 42.9203 18.2223C39.1359 20.2238 35.0737 21.6499 30.8683 22.4526C30.3061 22.56 29.9326 23.0973 30.0267 23.6619C30.4045 25.935 30.7827 28.2085 31.1606 30.4817C31.2578 31.0653 31.8158 31.4548 32.3971 31.3455Z" fill="#36B990"/>
<path d="M31.865 28.7703L31.2471 25.0568C31.3397 25.0412 31.4323 25.0175 31.5237 24.9856C32.3159 24.7074 32.7634 23.8867 32.5953 23.0864C34.2136 22.7167 35.8135 22.2553 37.3754 21.707C38.9372 21.1588 40.4746 20.5191 41.9687 19.7961C42.3376 20.5261 43.1994 20.8872 43.992 20.609C44.0838 20.5767 44.1706 20.5374 44.2527 20.4915L46.0912 23.7766C45.4021 24.1614 45.0686 24.9976 45.3391 25.768C45.3644 25.8404 45.3943 25.9101 45.4286 25.9762C43.5753 26.8921 41.6633 27.6968 39.7178 28.3797C37.7719 29.0625 35.7762 29.6295 33.7571 30.073C33.7428 29.9999 33.7225 29.9267 33.6972 29.8544C33.4264 29.0839 32.6435 28.64 31.865 28.7703Z" fill="#77D9A5"/>
<path d="M32.1359 30.4022L32.0215 29.7151C32.3495 29.6598 32.6795 29.8466 32.7935 30.1715C32.8051 30.2042 32.8137 30.2368 32.8203 30.2699C32.5923 30.3158 32.3643 30.3598 32.1359 30.4022Z" fill="#77D9A5"/>
<path d="M31.09 24.1117L30.9756 23.425C31.2036 23.3814 31.4316 23.3366 31.6592 23.2896C31.7262 23.6242 31.5382 23.9658 31.2063 24.0821C31.1678 24.0958 31.1289 24.1059 31.09 24.1117Z" fill="#77D9A5"/>
<path d="M42.8257 19.3701C43.0327 19.2647 43.2389 19.1573 43.444 19.0483L43.7844 19.6561C43.7498 19.6756 43.7132 19.6923 43.6747 19.7059C43.3432 19.8223 42.9829 19.6732 42.8257 19.3701Z" fill="#77D9A5"/>
<path d="M46.2422 25.4509C46.1281 25.1264 46.269 24.7743 46.5593 24.6124L46.8997 25.2202C46.6947 25.3295 46.4892 25.4381 46.283 25.5447C46.2674 25.5147 46.2534 25.4836 46.2422 25.4509Z" fill="#77D9A5"/>
<path d="M35.8519 26.0039C36.4406 27.6817 38.1258 28.6179 39.6156 28.0949C41.1059 27.5716 41.8362 25.7879 41.2475 24.1101C40.6588 22.4327 38.9732 21.4966 37.4834 22.0195C35.9935 22.5425 35.2628 24.3265 35.8519 26.0039Z" fill="#36B990"/>
<path d="M39.1491 27.2965C38.4098 27.5284 37.681 27.3607 37.544 26.9708C37.4713 26.7638 37.5471 26.3953 37.7786 26.314C38.0343 26.2245 38.3674 26.5109 38.8456 26.4319L38.4993 25.4455C37.8643 25.4292 37.1152 25.398 36.8413 24.6187C36.5701 23.8455 37.0121 23.2732 37.6253 22.9553L37.5654 22.7849C37.5355 22.6996 37.6051 22.5864 37.739 22.5393C37.8549 22.4989 37.9981 22.5374 38.0281 22.6226L38.0818 22.7747C38.4635 22.6545 39.2098 22.5016 39.3572 22.9218C39.4152 23.0864 39.423 23.4596 39.1553 23.5537C38.9541 23.6241 38.7701 23.4701 38.3639 23.5782L38.6759 24.4673C39.3024 24.4798 40.0483 24.5393 40.337 25.3615C40.6016 26.1163 40.2751 26.7439 39.6031 27.1097L39.6654 27.286C39.6954 27.3712 39.6074 27.491 39.4915 27.5319C39.3576 27.5789 39.2323 27.5338 39.2024 27.4486L39.1491 27.2965ZM38.2226 24.4623L37.9685 23.7378C37.7137 23.8887 37.6471 24.0693 37.6985 24.2156C37.7604 24.3922 37.9572 24.4459 38.2226 24.4623ZM38.9592 25.4689L39.2456 26.2848C39.4354 26.1634 39.5592 25.9903 39.4821 25.7708C39.4117 25.57 39.2144 25.4953 38.9592 25.4689Z" fill="#77D9A5"/>
<path d="M43.8288 23.4281C43.8288 23.9191 43.4307 24.3175 42.9393 24.3175C42.4482 24.3175 42.0498 23.9191 42.0498 23.4281C42.0498 22.9366 42.4482 22.5386 42.9393 22.5386C43.4307 22.5386 43.8288 22.9366 43.8288 23.4281Z" fill="#36B990"/>
<path d="M34.9963 26.5284C34.9963 27.0194 34.5982 27.4179 34.1068 27.4179C33.6157 27.4179 33.2173 27.0194 33.2173 26.5284C33.2173 26.037 33.6157 25.6389 34.1068 25.6389C34.5982 25.6389 34.9963 26.037 34.9963 26.5284Z" fill="#36B990"/>
<path d="M50.0533 32.2902C49.9619 32.6233 49.8631 32.9528 49.758 33.2804C49.4576 34.2178 49.1039 35.1322 48.7 36.0197C48.4576 36.5543 48.1966 37.0796 47.918 37.5936C47.5226 38.3259 47.0919 39.0364 46.6281 39.7228C46.446 39.9932 46.2588 40.2586 46.0662 40.5216C42.4441 38.0438 39.1453 35.1154 36.2524 31.8046C35.8637 31.3591 35.9154 30.6809 36.3691 30.3015C38.1352 28.821 39.9017 27.3408 41.6683 25.8607C42.1072 25.4934 42.7593 25.542 43.1371 25.972C45.2079 28.326 47.5277 30.4447 50.0533 32.2902Z" fill="#36B990"/>
<path d="M49.7581 33.2804C49.4578 34.2178 49.1041 35.1322 48.7002 36.0197C48.4578 36.5543 48.1967 37.0796 47.9181 37.5936C47.5228 38.3259 47.092 39.0364 46.6282 39.7228C45.2072 38.7523 43.8361 37.7099 42.5256 36.6053C40.9493 35.2757 39.4474 33.8442 38.04 32.3299C38.0949 32.2808 38.1482 32.2256 38.198 32.1676C38.7245 31.5423 38.7089 30.6435 38.2011 30.0381L41.0867 27.6206C41.147 27.6922 41.2135 27.7599 41.2886 27.8225C41.9303 28.3634 42.8645 28.3323 43.468 27.7809C44.6088 28.9875 45.8189 30.1319 47.0839 31.198C47.9461 31.9252 48.8395 32.6209 49.7581 33.2804Z" fill="#77D9A5"/>
<path d="M36.9331 31.101L37.467 30.6536C37.6814 30.908 37.6876 31.287 37.4658 31.5504C37.4436 31.5765 37.4195 31.601 37.3946 31.6232C37.2393 31.4501 37.0856 31.2761 36.9331 31.101Z" fill="#77D9A5"/>
<path d="M41.8203 27.0055L42.3542 26.558C42.5075 26.7327 42.6619 26.9062 42.818 27.0782C42.5635 27.3058 42.1736 27.3171 41.9051 27.0907C41.874 27.0646 41.8456 27.0358 41.8203 27.0055Z" fill="#77D9A5"/>
<path d="M42.6077 32.0711C41.4618 33.4306 41.5116 35.3574 42.7186 36.3753C43.926 37.3932 45.8333 37.1165 46.9796 35.7574C48.1255 34.3979 48.0757 32.4711 46.8687 31.4532C45.6613 30.4353 43.754 30.7119 42.6077 32.0711Z" fill="#36B990"/>
<path d="M46.5231 32.3485L46.627 32.2255C46.6854 32.1559 46.6457 32.0135 46.5523 31.9345C46.4429 31.8431 46.3106 31.8407 46.2527 31.9096L46.1359 32.0477C45.5503 31.6808 44.8325 31.5901 44.3041 32.2174C43.7725 32.8489 44.1262 33.5096 44.434 34.0648L43.7601 34.8636C43.45 34.4924 43.527 34.0598 43.32 33.8851C43.1329 33.7267 42.7768 33.8485 42.6356 34.017C42.3691 34.3321 42.5951 35.0457 43.1702 35.5648L43.0663 35.6878C43.008 35.7574 43.0329 35.8874 43.141 35.9788C43.2348 36.0582 43.3823 36.0737 43.4406 36.0041L43.5613 35.8613C44.2177 36.2535 44.9243 36.2173 45.4402 35.6057C46.0017 34.9399 45.6741 34.2668 45.3663 33.7205L45.9737 32.9999C46.2733 33.2952 46.2348 33.5321 46.397 33.6695C46.6145 33.8528 46.9317 33.6559 47.0441 33.5228C47.3313 33.1816 46.8204 32.617 46.5231 32.3485ZM44.6535 35.0769C44.5037 35.2539 44.2916 35.2364 44.0897 35.1345L44.6472 34.4726C44.7546 34.7068 44.7908 34.9138 44.6535 35.0769ZM45.1406 33.3275C45.02 33.0901 44.9667 32.8936 45.0873 32.7501C45.1873 32.6314 45.3768 32.5971 45.6356 32.7407L45.1406 33.3275Z" fill="#77D9A5"/>
<path d="M48.6998 36.0196C48.4574 36.5543 48.1963 37.0795 47.9178 37.5935C47.896 37.5788 47.875 37.5632 47.8543 37.5457C47.4788 37.2293 47.431 36.6675 47.7469 36.292C47.9874 36.008 48.3672 35.9115 48.6998 36.0196Z" fill="#36B990"/>
<path d="M42.1603 30.8314C42.1603 31.3224 41.7623 31.7209 41.2708 31.7209C40.7798 31.7209 40.3813 31.3224 40.3813 30.8314C40.3813 30.3399 40.7798 29.9419 41.2708 29.9419C41.7623 29.9419 42.1603 30.3399 42.1603 30.8314Z" fill="#36B990"/>
<path d="M46.2265 36.8932C46.2265 38.3352 46.0786 39.6624 45.7989 40.8806C45.5856 41.1616 45.3662 41.4382 45.1425 41.7098C44.8895 42.0156 44.6296 42.3149 44.3635 42.6082C43.6394 43.4063 42.8662 44.1572 42.0476 44.8565C41.5682 45.2673 41.074 45.6603 40.5655 46.0327C39.8433 46.5646 39.0924 47.0588 38.3153 47.5121C38.0293 47.6798 37.7391 47.8408 37.4457 47.9969C37.1959 48.1299 36.9434 48.2591 36.6885 48.384C36.2286 48.6097 35.7605 48.8218 35.285 49.0206C32.2683 50.277 28.9583 50.9719 25.4859 50.9719C17.1931 50.9719 9.8251 47.0117 5.17108 40.8783C4.89132 39.6612 4.74463 38.3352 4.74463 36.8932C4.74463 25.4381 14.0309 11.0535 25.4859 11.0535C36.9402 11.0535 46.2265 25.4381 46.2265 36.8932Z" fill="#40649C"/>
<path d="M24.8205 40.1687C21.9182 40.0718 19.5479 38.5722 19.5479 37.0244C19.5479 36.2022 20.2735 34.9929 21.1926 34.9929C22.2085 34.9929 23.0307 36.4197 24.8205 36.7341V32.8159C22.5953 31.9696 19.9833 30.9296 19.9833 27.8335C19.9833 24.7619 22.2568 23.2865 24.8205 22.9238V22.2464C24.8205 21.9079 25.2077 21.5935 25.7396 21.5935C26.1991 21.5935 26.6586 21.9079 26.6586 22.2464V22.8511C28.1582 22.8997 30.9881 23.2865 30.9881 24.9553C30.9881 25.6082 30.5527 26.9386 29.4886 26.9386C28.6905 26.9386 28.231 26.1646 26.6586 26.0436V29.5751C28.8598 30.3973 31.4235 31.5342 31.4235 34.7991C31.4235 37.7983 29.4886 39.6123 26.6586 40.0718V40.7734C26.6586 41.1119 26.1991 41.4263 25.7396 41.4263C25.2077 41.4263 24.8205 41.1119 24.8205 40.7734V40.1687ZM25.0622 28.9946V26.1164C23.9739 26.3339 23.5143 26.8903 23.5143 27.4708C23.5143 28.172 24.1431 28.6074 25.0622 28.9946ZM26.4166 33.4688V36.71C27.2392 36.5162 27.8921 36.0567 27.8921 35.1863C27.8921 34.3883 27.2874 33.8801 26.4166 33.4688Z" fill="#FEE175"/>
<path d="M31.7988 8.8189C32.4968 6.88741 43.1807 0.104248 25.4857 0.104248C7.79099 0.104248 18.4745 6.88741 19.1725 8.8189" fill="#40649C"/>
<path d="M14.704 36.8932C14.704 43.5499 16.3339 47.7525 18.8678 50.1035C13.3328 48.6198 8.54146 45.3191 5.17225 40.8806C4.8921 39.6624 4.74463 38.3359 4.74463 36.8932C4.74463 25.4381 14.0309 11.0535 25.4859 11.0535C19.5316 11.0535 14.704 25.4381 14.704 36.8932Z" fill="#274B7B"/>
<path d="M22.2042 8.81937H19.1731C18.477 6.89488 7.86748 0.152962 25.296 0.105103C16.3642 0.198875 21.8431 6.90111 22.2042 8.81937Z" fill="#274B7B"/>
<path d="M33.8776 10.7937C33.8776 11.9411 32.9465 12.8722 31.7991 12.8722H19.1728C18.5985 12.8722 18.0794 12.6392 17.7028 12.2637C17.3261 11.887 17.0942 11.3668 17.0942 10.7937C17.0942 9.64503 18.0242 8.71509 19.1728 8.71509H31.7991C32.3722 8.71509 32.8925 8.94738 33.2691 9.32364C33.6446 9.70029 33.8776 10.2193 33.8776 10.7937Z" fill="#FCBC77"/>
<path d="M33.8777 10.7937C33.8777 11.9411 32.9466 12.8722 31.7991 12.8722H23.646C23.0728 12.8722 22.5526 12.6392 22.1759 12.2637C21.8005 11.887 21.5674 11.3668 21.5674 10.7937C21.5674 9.64503 22.4985 8.71509 23.646 8.71509H31.7991C32.3723 8.71509 32.8925 8.94738 33.2692 9.32364C33.6446 9.70029 33.8777 10.2193 33.8777 10.7937Z" fill="#FEE175"/>
<path d="M39.638 17.4834C43.9022 14.3527 47.6643 10.5905 50.795 6.32637C51.1452 5.84933 51.0359 5.17775 50.5515 4.83767C48.6663 3.51279 46.7807 2.18752 44.8951 0.862248C44.427 0.53307 43.7811 0.637349 43.4411 1.09765C40.8964 4.5404 37.852 7.58471 34.4093 10.1294C33.949 10.4695 33.8447 11.1154 34.1739 11.5835C35.4992 13.4691 36.8244 15.3546 38.1493 17.2398C38.4898 17.7242 39.161 17.8336 39.638 17.4834Z" fill="#36B990"/>
<path d="M38.0429 15.3928L35.8779 12.3127C35.9546 12.259 36.0277 12.1975 36.0962 12.1291C36.69 11.5349 36.7382 10.6015 36.2398 9.95321C37.5386 8.91899 38.781 7.81005 39.9514 6.63964C41.1218 5.46923 42.2308 4.22723 43.2646 2.92841C43.9132 3.42646 44.8463 3.3786 45.44 2.78484C45.5089 2.71597 45.5704 2.64281 45.6245 2.56616L48.7042 4.7315C48.2493 5.37663 48.3108 6.27467 48.8882 6.85209C48.9423 6.90618 48.9995 6.95637 49.0591 7.00112C47.7851 8.62872 46.4101 10.1824 44.9521 11.6403C43.4942 13.0983 41.9405 14.4734 40.3129 15.7477C40.2677 15.6881 40.2179 15.6309 40.1639 15.5765C39.586 14.9991 38.6884 14.938 38.0429 15.3928Z" fill="#77D9A5"/>
<path d="M38.9941 16.746L38.5938 16.1764C38.8653 15.9842 39.2435 16.0098 39.4871 16.2534C39.5112 16.2775 39.5338 16.3036 39.5537 16.3304C39.3681 16.4705 39.1817 16.609 38.9941 16.746Z" fill="#77D9A5"/>
<path d="M35.3275 11.5291L34.9268 10.9594C35.1139 10.8213 35.2999 10.6824 35.4847 10.5411C35.6898 10.8143 35.6684 11.2034 35.4197 11.452C35.391 11.4808 35.3598 11.5065 35.3275 11.5291Z" fill="#77D9A5"/>
<path d="M43.8525 2.17306C43.9934 1.98824 44.1327 1.80225 44.2704 1.61548L44.8405 2.01586C44.8179 2.04855 44.7922 2.07928 44.7634 2.10808C44.5148 2.35632 44.1253 2.37811 43.8525 2.17306Z" fill="#77D9A5"/>
<path d="M49.5653 6.17535C49.3221 5.93217 49.2964 5.55396 49.4882 5.28198L50.0579 5.68237C49.9209 5.86991 49.7824 6.05629 49.6423 6.24189C49.6154 6.22205 49.5898 6.19948 49.5653 6.17535Z" fill="#77D9A5"/>
<path d="M40.4411 11.1726C41.6983 12.4297 43.6228 12.5437 44.7391 11.427C45.8558 10.3107 45.7418 8.38622 44.4846 7.12943C43.2274 5.87225 41.3033 5.75825 40.1866 6.87457C39.0703 7.99129 39.1839 9.91538 40.4411 11.1726Z" fill="#36B990"/>
<path d="M43.9703 10.91C43.4046 11.4395 42.6742 11.6037 42.3824 11.3115C42.2271 11.1566 42.1361 10.7917 42.3092 10.6181C42.5011 10.4263 42.9252 10.5403 43.3221 10.2621L42.5832 9.52321C42.0038 9.78313 41.3147 10.0796 40.7307 9.49558C40.1513 8.91621 40.3019 8.20883 40.7167 7.65709L40.589 7.52907C40.5252 7.46526 40.5388 7.33297 40.6392 7.23258C40.726 7.14581 40.8719 7.11857 40.9361 7.18239L41.0501 7.29678C41.3419 7.02286 41.9489 6.56216 42.2637 6.87694C42.3867 6.9999 42.5555 7.33297 42.3548 7.53374C42.2046 7.68433 41.9715 7.62518 41.6521 7.89872L42.3186 8.56525C42.8886 8.30494 43.5867 8.03568 44.203 8.65163C44.7687 9.21738 44.7458 9.92476 44.2987 10.5454L44.431 10.6777C44.4948 10.7415 44.4676 10.8874 44.3808 10.9742C44.2804 11.0745 44.1481 11.0882 44.0843 11.0244L43.9703 10.91ZM41.9081 8.75629L41.3649 8.2135C41.2007 8.4598 41.219 8.65163 41.3283 8.76096C41.4606 8.89326 41.6614 8.85668 41.9081 8.75629ZM43.0073 9.345L43.619 9.95628C43.7372 9.76484 43.7738 9.55472 43.6096 9.39053C43.459 9.24033 43.2493 9.25823 43.0073 9.345Z" fill="#77D9A5"/>
<path d="M46.6017 5.78157C46.6017 6.273 46.2037 6.67105 45.7122 6.67105C45.2208 6.67105 44.8228 6.273 44.8228 5.78157C44.8228 5.29053 45.2208 4.89209 45.7122 4.89209C46.2037 4.89209 46.6017 5.29053 46.6017 5.78157Z" fill="#36B990"/>
<path d="M39.9821 12.401C39.9821 12.892 39.584 13.2904 39.0926 13.2904C38.6016 13.2904 38.2031 12.892 38.2031 12.401C38.2031 11.9095 38.6016 11.5115 39.0926 11.5115C39.584 11.5115 39.9821 11.9095 39.9821 12.401Z" fill="#36B990"/>
<path d="M34.0048 39.1165C37.5876 40.4729 41.3335 41.3445 45.1428 41.7099C44.8899 42.0157 44.63 42.3149 44.3638 42.6083C43.6397 43.4064 42.8666 44.1573 42.0479 44.8565C41.5685 45.2674 41.0744 45.6604 40.5658 46.0328C39.8436 46.5647 39.0927 47.0588 38.3156 47.5121C38.0297 47.6798 37.7394 47.8409 37.446 47.9969C37.1962 48.13 36.9437 48.2592 36.6888 48.3841C36.2289 48.6098 35.7608 48.8218 35.2853 49.0207C33.7208 48.5845 32.1749 48.0759 30.6543 47.4946C30.1018 47.2833 29.8302 46.6592 30.0531 46.111C30.9204 43.9764 31.7881 41.8406 32.6558 39.706C32.871 39.1757 33.4702 38.9134 34.0048 39.1165Z" fill="#36B990"/>
<path d="M42.0474 44.8565C41.568 45.2674 41.0739 45.6604 40.5653 46.0327C39.8432 46.5646 39.0922 47.0588 38.3152 47.5121C38.0292 47.6798 37.7389 47.8409 37.4455 47.9969C37.1957 48.13 36.9432 48.2592 36.6883 48.3841C35.2681 48.0238 33.8619 47.6028 32.4783 47.1222C32.5044 47.0514 32.5261 46.9786 32.5417 46.9035C32.7145 46.1059 32.2798 45.3184 31.5483 45.0219L32.9651 41.534C33.0514 41.5682 33.1429 41.5974 33.2378 41.6172C34.0584 41.7951 34.8689 41.3301 35.1444 40.5601C36.7175 41.0916 38.3226 41.5359 39.94 41.8853C41.3972 42.2017 42.8766 42.4429 44.3633 42.6083C43.6392 43.4063 42.8661 44.1573 42.0474 44.8565Z" fill="#77D9A5"/>
<path d="M30.9258 46.5542L31.1876 45.9087C31.4962 46.0332 31.6795 46.3651 31.6067 46.7013C31.5997 46.7351 31.5896 46.7678 31.5779 46.7993C31.3596 46.7192 31.1425 46.6375 30.9258 46.5542Z" fill="#77D9A5"/>
<path d="M33.3257 40.6461L33.5875 40.001C33.8051 40.0835 34.0226 40.1644 34.2412 40.2434C34.1229 40.5636 33.784 40.7562 33.4405 40.6819C33.4004 40.6733 33.3623 40.6613 33.3257 40.6461Z" fill="#77D9A5"/>
<path d="M42.0478 44.8565C41.5684 45.2674 41.0743 45.6604 40.5657 46.0328C39.8435 46.5647 39.0926 47.0588 38.3156 47.5121C38.0296 47.6798 37.7393 47.8409 37.4459 47.9969C36.565 47.2989 36.1156 46.0413 36.3942 44.7522C36.7708 43.0141 38.3261 41.876 39.8696 42.2099C41.0793 42.4709 41.9221 43.5612 42.0478 44.8565Z" fill="#36B990"/>
<path d="M39.983 43.165L40.0172 43.0067C40.0359 42.9195 39.9339 42.8114 39.8141 42.7853C39.676 42.7549 39.5573 42.8152 39.5374 42.904L39.4989 43.0806C38.8106 43.0296 38.1343 43.2864 37.9616 44.0876C37.7869 44.895 38.409 45.3129 38.9413 45.6596L38.7199 46.6809C38.2717 46.4977 38.1375 46.0798 37.8721 46.0226C37.6328 45.9705 37.376 46.2452 37.3293 46.4595C37.2499 46.8234 37.6775 47.2864 38.3153 47.5121C39.0923 47.0588 39.8433 46.5646 40.5654 46.0327C40.4674 45.5043 40.0129 45.181 39.6032 44.9175L39.8028 43.9969C40.2063 44.1179 40.2826 44.3456 40.4903 44.3903C40.7682 44.4506 40.9565 44.1281 40.9927 43.9576C41.0876 43.5226 40.3709 43.2627 39.983 43.165ZM38.902 44.1915C38.9351 44.0409 39.0861 43.9211 39.3826 43.9265L39.2203 44.6763C39.0016 44.5246 38.8623 44.3748 38.902 44.1915ZM39.6082 46.451C39.5592 46.6778 39.3627 46.7611 39.1382 46.7654L39.3211 45.9195C39.525 46.0767 39.6542 46.2428 39.6082 46.451Z" fill="#77D9A5"/>
<path d="M35.5215 44.2842C35.5215 44.7752 35.1231 45.1736 34.6317 45.1736C34.1406 45.1736 33.7422 44.7752 33.7422 44.2842C33.7422 43.7927 34.1406 43.3943 34.6317 43.3943C35.1231 43.3943 35.5215 43.7927 35.5215 44.2842Z" fill="#36B990"/>
<path d="M17.5501 36.6228C15.1991 39.8239 12.4933 42.7425 9.48521 45.3246C9.22802 45.1176 8.97549 44.9051 8.72686 44.688C8.02765 44.0771 7.36307 43.4293 6.73467 42.7468C6.45296 42.4421 6.18021 42.1301 5.91406 41.8118C5.65998 41.5079 5.41251 41.1966 5.17244 40.8807C5.17244 40.8795 5.17244 40.8795 5.17127 40.8783C4.79346 40.3811 4.43354 39.8694 4.09463 39.3441C3.91448 39.0694 3.74094 38.7908 3.57324 38.5079C6.03974 36.3971 8.26189 34.0107 10.1965 31.3944C10.5369 30.9337 11.1817 30.8298 11.6498 31.1594C13.5357 32.4835 15.4209 33.8088 17.3069 35.1344C17.7905 35.4745 17.9006 36.1465 17.5501 36.6228Z" fill="#36B990"/>
<path d="M15.8135 37.2978C14.5404 38.9258 13.1649 40.4791 11.7066 41.9375C10.7517 42.8915 9.75719 43.8098 8.72646 44.688C8.02725 44.0771 7.36267 43.4293 6.73428 42.7468C6.45257 42.4421 6.17981 42.1301 5.91367 41.8118C5.65958 41.5079 5.41212 41.1966 5.17204 40.8807C5.17204 40.8795 5.17204 40.8795 5.17088 40.8783C4.79306 40.3811 4.43314 39.8694 4.09424 39.3441C4.99812 38.5776 5.8697 37.7722 6.70626 36.936C7.87667 35.7656 8.98521 34.5236 10.0194 33.2255C10.6673 33.7236 11.6007 33.6757 12.1945 33.082C12.2634 33.0131 12.3245 32.9392 12.3785 32.8633L15.4587 35.0282C15.0042 35.673 15.0657 36.5718 15.6431 37.1492C15.6972 37.2033 15.7544 37.2531 15.8135 37.2978Z" fill="#77D9A5"/>
<path d="M10.6074 32.4696C10.7483 32.2851 10.8876 32.0991 11.0253 31.912L11.5953 32.3124C11.5728 32.3451 11.5471 32.3762 11.5183 32.405C11.2697 32.6536 10.8802 32.675 10.6074 32.4696Z" fill="#77D9A5"/>
<path d="M16.3202 36.4722C16.077 36.229 16.0513 35.8504 16.2428 35.5789L16.8128 35.9792C16.6758 36.1668 16.5373 36.3532 16.3972 36.5388C16.3704 36.5189 16.3447 36.4964 16.3202 36.4722Z" fill="#77D9A5"/>
<path d="M7.19614 41.4699C8.45332 42.727 10.3774 42.841 11.4941 41.7243C12.6105 40.608 12.4968 38.6835 11.2397 37.4263C9.98248 36.1692 8.058 36.0555 6.94167 37.1719C5.82496 38.2886 5.93896 40.2127 7.19614 41.4699Z" fill="#36B990"/>
<path d="M11.0534 40.8422C11.5008 40.2212 11.5238 39.5138 10.9577 38.9477C10.3421 38.3321 9.64406 38.6014 9.07403 38.8617L8.40712 38.1959C8.72657 37.922 8.95964 37.9815 9.11022 37.8305C9.31099 37.6298 9.14135 37.2971 9.01878 37.1734C8.70361 36.859 8.097 37.3197 7.80479 37.5936L7.69156 37.4792C7.62697 37.4154 7.48145 37.4426 7.39507 37.529C7.2939 37.6298 7.28067 37.7621 7.3441 37.8255L7.47211 37.9535C7.05694 38.5056 6.90597 39.213 7.48534 39.7924C8.07016 40.376 8.75886 40.0795 9.33823 39.8196L10.0779 40.5593C9.68025 40.8367 9.25613 40.7235 9.06469 40.9149C8.89077 41.0885 8.9822 41.4527 9.13745 41.6087C9.42967 41.9001 10.16 41.7355 10.725 41.2071L10.8394 41.3208C10.9028 41.385 11.0359 41.3706 11.1359 41.2706C11.2219 41.1842 11.2503 41.0375 11.1857 40.9741L11.0534 40.8422ZM8.08377 39.0582C7.97444 38.9477 7.95576 38.7566 8.11996 38.5099L8.66314 39.0527C8.41645 39.1539 8.21568 39.1901 8.08377 39.0582ZM10.3744 40.2535L9.76274 39.6418C10.004 39.5554 10.2141 39.5367 10.3647 39.6873C10.5293 39.8519 10.4927 40.062 10.3744 40.2535Z" fill="#77D9A5"/>
<path d="M13.3566 36.0784C13.3566 36.5699 12.9586 36.9679 12.4671 36.9679C11.9757 36.9679 11.5776 36.5699 11.5776 36.0784C11.5776 35.587 11.9757 35.189 12.4671 35.189C12.9586 35.189 13.3566 35.587 13.3566 36.0784Z" fill="#36B990"/>
<path d="M6.73467 42.7468C6.45296 42.4421 6.18021 42.1301 5.91406 41.8118C6.11873 41.8262 6.3195 41.9114 6.4767 42.0686C6.66308 42.2546 6.74907 42.5032 6.73467 42.7468Z" fill="#36B990"/>
</g>
<defs>
<clipPath id="clip0_251_442">
<rect width="51" height="51" fill="white"/>
</clipPath>
</defs>
</svg>
